<svg xmlns="http://www.w3.org/2000/svg" viewBox="-3 -3 18.55 18.64">
    <title>Mod</title>
    <g id="Layer_2" data-name="Layer 2">
        <g id="Layer_1-2" data-name="Layer 1">
            <path
                d="M3,7.81,8.5.11A.26.26,0,0,1,8.71,0h4.57a.27.27,0,0,1,.27.27V4.83a.27.27,0,0,1-.11.22L5.83,10.6a.26.26,0,0,0,0,.4l1.28,1.28a.28.28,0,0,1,0,.38l-.74.73a.26.26,0,0,1-.36,0L3.61,11.52a.29.29,0,0,0-.36,0l-2,2a.25.25,0,0,1-.37,0l-.78-.78a.25.25,0,0,1,0-.37l2.05-2.05a.29.29,0,0,0,0-.36l-2-2.5a.29.29,0,0,1,0-.36l.69-.69a.28.28,0,0,1,.38,0L2.64,7.84A.26.26,0,0,0,3,7.81Z"
                style="fill:#fff" />
        </g>
    </g>
</svg>